<svg xmlns="http://www.w3.org/2000/svg" xmlns:xlink="http://www.w3.org/1999/xlink" xmlns:inkscape="http://www.inkscape.org/namespaces/inkscape" version="1.1" viewBox="67 67 348 82">
<defs>
<clipPath id="clip_1">
<path transform="matrix(1,0,0,-1,0,216)" d="M0 216H482V0H0Z"/>
</clipPath>
</defs>
<g inkscape:groupmode="layer" inkscape:label="MS-symbol">
<g clip-path="url(#clip_1)">
<path transform="matrix(1,0,0,-1,394.9424,104.5891)" d="M0 0H-10.858V-25.004H-18.238V0H-23.42V5.965H-18.238V10.273C-18.238 13.527-17.179 16.193-15.06 18.271-12.941 20.35-10.225 21.389-6.911 21.389-6.028 21.389-5.244 21.344-4.561 21.254-3.879 21.163-3.276 21.027-2.754 20.847V14.551C-2.995 14.691-3.417 14.862-4.019 15.063-4.622 15.263-5.315 15.364-6.097 15.364-7.625 15.364-8.799 14.887-9.623 13.933-10.447 12.979-10.858 11.568-10.858 9.701V5.965H0V12.924L7.321 15.153V5.965H14.702V0H7.321V-14.49C7.321-16.399 7.667-17.744 8.36-18.527 9.053-19.31 10.142-19.702 11.629-19.702 12.05-19.702 12.557-19.602 13.15-19.401 13.742-19.2 14.259-18.96 14.702-18.678V-24.703C14.239-24.964 13.471-25.205 12.397-25.426 11.323-25.647 10.263-25.757 9.219-25.757 6.146-25.757 3.841-24.94 2.305-23.302 .768-21.665 0-19.2 0-15.906ZM-48.407-9.731C-48.407-12.964-47.674-15.434-46.208-17.142-44.742-18.849-42.643-19.702-39.912-19.702-37.26-19.702-35.242-18.849-33.857-17.142-32.471-15.434-31.778-12.904-31.778-9.55-31.778-6.216-32.496-3.701-33.932-2.003-35.368-.306-37.382 .542-39.972 .542-42.643 .542-44.717-.346-46.193-2.124-47.669-3.901-48.407-6.437-48.407-9.731M-55.999-9.971C-55.999-4.85-54.553-.794-51.661 2.199-48.769 5.192-44.752 6.688-39.611 6.688-34.77 6.688-30.99 5.247-28.268 2.365-25.547-.518-24.186-4.409-24.186-9.309-24.186-14.33-25.633-18.327-28.524-21.299-31.416-24.272-35.353-25.757-40.334-25.757-45.134-25.757-48.945-24.347-51.766-21.525-54.588-18.704-55.999-14.852-55.999-9.971M-72.416-2.169C-72.416-3.214-72.085-4.032-71.422-4.625-70.76-5.217-69.294-5.965-67.024-6.868-64.112-8.034-62.068-9.344-60.893-10.8-59.718-12.256-59.131-14.019-59.131-16.087-59.131-18.999-60.251-21.339-62.49-23.106-64.73-24.874-67.757-25.757-71.573-25.757-72.858-25.757-74.279-25.602-75.836-25.29-77.392-24.979-78.713-24.583-79.797-24.1V-16.931C-78.471-17.855-77.046-18.587-75.519-19.129-73.993-19.672-72.608-19.943-71.362-19.943-69.715-19.943-68.5-19.712-67.717-19.25-66.933-18.789-66.542-18.015-66.542-16.931-66.542-15.926-66.948-15.078-67.762-14.385-68.575-13.692-70.117-12.893-72.386-11.99-75.077-10.865-76.985-9.6-78.11-8.194-79.235-6.788-79.797-5.001-79.797-2.832-79.797-.04-78.688 2.254-76.468 4.052-74.25 5.849-71.372 6.748-67.837 6.748-66.753 6.748-65.537 6.628-64.192 6.387-62.846 6.145-61.722 5.834-60.818 5.453V-1.476C-61.782-.833-62.907-.282-64.192 .181-65.478 .643-66.753 .874-68.018 .874-69.404 .874-70.483 .603-71.256 .061-72.03-.482-72.416-1.225-72.416-2.169M-107.482-9.731C-107.482-12.964-106.749-15.434-105.282-17.142-103.817-18.849-101.718-19.702-98.987-19.702-96.335-19.702-94.317-18.849-92.932-17.142-91.546-15.434-90.853-12.904-90.853-9.55-90.853-6.216-91.571-3.701-93.007-2.003-94.443-.306-96.456 .542-99.046 .542-101.718 .542-103.791-.346-105.268-2.124-106.744-3.901-107.482-6.437-107.482-9.731M-115.074-9.971C-115.074-4.85-113.628-.794-110.736 2.199-107.843 5.192-103.827 6.688-98.685 6.688-93.845 6.688-90.064 5.247-87.343 2.365-84.622-.518-83.261-4.409-83.261-9.309-83.261-14.33-84.707-18.327-87.599-21.299-90.491-24.272-94.427-25.757-99.408-25.757-104.209-25.757-108.019-24.347-110.841-21.525-113.663-18.704-115.074-14.852-115.074-9.971M-118.21 6.477C-117.628 6.477-117.105 6.436-116.643 6.356-116.181 6.276-115.79 6.176-115.468 6.055V-1.325C-115.85-1.044-116.407-.779-117.14-.527-117.873-.276-118.762-.151-119.806-.151-121.594-.151-123.105-.904-124.34-2.41-125.575-3.916-126.193-6.236-126.193-9.369V-25.004H-133.484V5.965H-126.193V1.085H-126.073C-125.41 2.772-124.406 4.092-123.06 5.046-121.714 5.999-120.098 6.477-118.21 6.477M-146.166-19.702C-145.082-19.702-143.887-19.452-142.581-18.949-141.276-18.447-140.071-17.785-138.966-16.961V-23.739C-140.131-24.402-141.451-24.904-142.928-25.245-144.403-25.587-146.026-25.757-147.793-25.757-152.352-25.757-156.058-24.317-158.909-21.434-161.761-18.553-163.187-14.872-163.187-10.394-163.187-5.413-161.731-1.311-158.818 1.913-155.907 5.137-151.78 6.748-146.437 6.748-145.071 6.748-143.691 6.572-142.294 6.221-140.899 5.869-139.79 5.463-138.966 5.001V-1.988C-140.091-1.165-141.24-.527-142.416-.075-143.59 .376-144.791 .603-146.015 .603-148.887 .603-151.207-.331-152.974-2.199-154.742-4.067-155.626-6.587-155.626-9.761-155.626-12.893-154.777-15.334-153.08-17.081-151.383-18.829-149.078-19.702-146.166-19.702M-168.278-25.004H-175.568V5.965H-168.278ZM-176.322 14.912C-176.322 16.117-175.885 17.126-175.011 17.94-174.137 18.753-173.098 19.16-171.893 19.16-170.608 19.16-169.543 18.743-168.7 17.91-167.856 17.076-167.434 16.077-167.434 14.912-167.434 13.727-167.866 12.733-168.73 11.93-169.594 11.126-170.648 10.725-171.893 10.725-173.139 10.725-174.188 11.131-175.041 11.944-175.895 12.759-176.322 13.747-176.322 14.912M-182.595 18.196V-25.004H-190.096V8.857H-190.216L-203.623-25.004H-208.593L-222.331 8.857H-222.421V-25.004H-229.35V18.196H-218.595L-206.183-13.828H-206.003L-192.898 18.196Z" fill="#737373"/>
<path transform="matrix(1,0,0,-1,0,216)" d="M106.214 109.786H71.996V144.004H106.214Z" fill="#f25022"/>
<path transform="matrix(1,0,0,-1,0,216)" d="M143.993 109.786H109.774997V144.004H143.993Z" fill="#7fba00"/>
<path transform="matrix(1,0,0,-1,0,216)" d="M106.214 72.007H71.996V106.225009H106.214Z" fill="#00a4ef"/>
<path transform="matrix(1,0,0,-1,0,216)" d="M143.993 72.007H109.774997V106.225009H143.993Z" fill="#ffb900"/>
</g>
</g>
</svg>
