<svg xmlns="http://www.w3.org/2000/svg" xmlns:xlink="http://www.w3.org/1999/xlink" xmlns:inkscape="http://www.inkscape.org/namespaces/inkscape" version="1.1" width="2041.09" height="350" viewBox="0 0 2041.09 350">
<defs>
<clipPath id="clip_1">
<path transform="matrix(1,0,0,-1,0,350)" d="M0 350H2041.09V0H0Z"/>
</clipPath>
</defs>
<g inkscape:groupmode="layer" inkscape:label="Layer 1">
<path transform="matrix(1,0,0,-1,0,350)" d="M430.845 47.135H487.089V302.798H430.845Z" fill="#13294b"/>
<path transform="matrix(1,0,0,-1,610.1558,47.202394)" d="M0 0H-56.25V-255.663H127.463V-204.528H0Z" fill="#13294b"/>
<path transform="matrix(1,0,0,-1,835.0614,47.202394)" d="M0 0H-56.243V-255.663H127.468V-204.528H0Z" fill="#13294b"/>
<path transform="matrix(1,0,0,-1,0,350)" d="M1004.968 47.135H1061.212V302.798H1004.968Z" fill="#13294b"/>
<path transform="matrix(1,0,0,-1,1299.6895,204.6129)" d="M0 0-119.789 157.411H-171.656V-98.252H-116.148V64.272L7.67-98.252H55.519V157.411H0Z" fill="#13294b"/>
<g clip-path="url(#clip_1)">
<path transform="matrix(1,0,0,-1,1621.3391,175.7641)" d="M0 0C0-43.829-31.406-79.619-76.696-79.619-121.985-79.619-154.132-43.096-154.132 .733V1.461C-154.132 45.289-122.714 81.085-77.425 81.085-32.135 81.085 0 44.557 0 .733ZM-76.696 132.943C-155.589 132.943-212.929 73.412-212.929 .733V0C-212.929-72.678-156.317-131.487-77.425-131.487 1.468-131.487 58.797-71.957 58.797 .733V1.461C58.797 74.144 2.196 132.943-76.696 132.943" fill="#13294b"/>
<path transform="matrix(1,0,0,-1,0,350)" d="M1734.574 47.135H1790.832V302.798H1734.574Z" fill="#13294b"/>
<path transform="matrix(1,0,0,-1,1960.3482,149.8352)" d="M0 0C-44.186 11.326-55.156 16.801-55.156 33.603V34.336C-55.156 46.75-43.822 56.611-22.281 56.611-.729 56.611 21.552 47.116 44.186 31.414L73.418 73.778C47.485 94.599 15.703 106.281-21.552 106.281-73.772 106.281-111.028 75.605-111.028 29.221V28.495C-111.028-22.275-77.789-36.522-26.287-49.67 16.443-60.63 25.205-67.925 25.205-82.172V-82.906C25.205-97.886 11.322-107.013-11.687-107.013-40.909-107.013-65.01-94.954-88.019-75.965L-121.257-115.775C-90.579-143.17-51.502-156.684-12.779-156.684 42.365-156.684 81.088-128.19 81.088-77.431V-76.698C81.088-32.136 51.866-13.514 0 0" fill="#13294b"/>
<path transform="matrix(1,0,0,-1,228.9792,336.5317)" d="M0 0H-215.39V67.3H-174.998C-167.573 67.3-161.538 73.336-161.538 80.771V242.305C-161.538 249.741-167.573 255.765-174.998 255.765H-215.39V323.066H0V255.765H-40.379C-47.817 255.765-53.845 249.741-53.845 242.305V80.771C-53.845 73.336-47.817 67.3-40.379 67.3H0ZM-40.379 80.771V242.305H13.467V336.532H-228.844V242.305H-174.998V80.771H-228.844V-13.468H13.467V80.771Z" fill="#13294b"/>
<path transform="matrix(1,0,0,-1,188.5995,80.76639)" d="M0 0H40.38V67.306H-175.01V0H-134.618C-127.193 0-121.158-6.024-121.158-13.466V-175.005C-121.158-182.429-127.193-188.465-134.618-188.465H-175.01V-255.765H40.38V-188.465H0C-7.437-188.465-13.466-182.429-13.466-175.005V-13.466C-13.466-6.024-7.437 0 0 0" fill="#ff5f05"/>
</g>
</g>
</svg>
